<svg xmlns="http://www.w3.org/2000/svg" width="21.903" height="22.082" viewBox="0 0 21.903 22.082">
  <g id="_001-shopping-cart" data-name="001-shopping-cart" transform="translate(-1 -1)">
    <path id="XMLID_952_" d="M7,26.284A2.284,2.284,0,1,0,9.284,24,2.287,2.287,0,0,0,7,26.284Zm3.046,0a.761.761,0,1,1-.761-.761A.763.763,0,0,1,10.046,26.284Z" transform="translate(-1.431 -5.487)" fill="#313131"/>
    <path id="XMLID_955_" d="M23.569,26.284a2.284,2.284,0,1,0-2.284,2.284A2.287,2.287,0,0,0,23.569,26.284Zm-3.046,0a.761.761,0,1,1,.761.761A.763.763,0,0,1,20.523,26.284Z" transform="translate(-4.294 -5.487)" fill="#313131"/>
    <path id="XMLID_958_" d="M3.36,2.523c.094.9,1.145,10.88,1.307,12.422A2.28,2.28,0,0,0,6.94,16.99H18.806a2.3,2.3,0,0,0,2.234-1.806l1.829-8.535a1.524,1.524,0,0,0-1.49-1.842H5.132L4.8,1.682A.762.762,0,0,0,4.046,1H1.761a.761.761,0,0,0,0,1.523ZM21.379,6.33,19.55,14.865a.767.767,0,0,1-.745.6H6.94a.76.76,0,0,1-.758-.681L5.292,6.33Z" fill="#313131"/>
  </g>
</svg>
