<?xml version="1.0" encoding="utf-8"?>
<!-- Generator: Adobe Illustrator 25.2.3, SVG Export Plug-In . SVG Version: 6.00 Build 0)  -->
<svg version="1.1" id="レイヤー_1" xmlns="http://www.w3.org/2000/svg" xmlns:xlink="http://www.w3.org/1999/xlink" x="0px"
	 y="0px" viewBox="0 0 322 51" style="enable-background:new 0 0 322 51;" xml:space="preserve">
<style type="text/css">
	.st0{enable-background:new    ;}
	.st1{fill:#2B2B2B;}
</style>
<g class="st0">
	<path class="st1" d="M23.2,35.2c-0.6,1.1-1.3,2-2.3,2.8c-1,0.8-2.2,1.3-3.5,1.7s-2.9,0.6-4.5,0.6c-1.4,0-2.6-0.1-3.6-0.3
		c-1-0.2-1.8-0.4-2.5-0.6C6,39.2,5.5,39,5.2,38.8c-0.3-0.2-0.5-0.3-0.6-0.3S4.3,38.6,4,39c-0.3,0.3-0.5,0.7-0.8,1H2.8l-0.1-8.6h0.4
		c0.3,0.8,0.6,1.5,1,2.3c0.4,0.7,0.8,1.4,1.3,2.1c0.5,0.6,1,1.2,1.5,1.7c0.5,0.5,1,0.9,1.5,1.1c0.5,0.3,1.1,0.5,1.9,0.8
		c0.8,0.3,1.6,0.4,2.3,0.4c2.1,0,3.8-0.6,5.2-1.7c1.3-1.2,2-2.7,2-4.7c0-0.8-0.1-1.5-0.4-2.1c-0.3-0.6-0.6-1.1-1.1-1.6
		c-0.4-0.4-1-0.8-1.6-1.1c-0.6-0.3-1.2-0.6-1.9-0.9s-1.3-0.5-1.8-0.6c-0.5-0.2-1-0.3-1.4-0.5c-0.4-0.2-0.9-0.3-1.4-0.5
		c-0.5-0.2-1-0.4-1.7-0.6c-0.7-0.3-1.5-0.7-2.1-1.2c-0.7-0.5-1.3-1.1-1.8-1.8c-0.5-0.7-0.9-1.4-1.2-2.2c-0.3-0.8-0.5-1.7-0.5-2.6
		c0-1.5,0.3-2.9,0.8-4c0.6-1.1,1.3-2,2.3-2.8C7,10,8.1,9.5,9.4,9.1s2.6-0.5,3.9-0.5c1.3,0,2.4,0.1,3.3,0.3c0.9,0.2,1.7,0.5,2.3,0.7
		c0.6,0.3,1,0.5,1.3,0.7s0.5,0.3,0.5,0.3c0.1,0,0.3-0.2,0.5-0.5c0.3-0.3,0.5-0.7,0.8-1h0.5v8H22c-0.3-0.9-0.8-1.9-1.3-2.8
		c-0.5-0.9-1.2-1.8-1.9-2.5c-0.7-0.7-1.5-1.3-2.5-1.8c-0.9-0.5-1.9-0.7-3.1-0.7c-0.9,0-1.7,0.1-2.5,0.4c-0.8,0.3-1.5,0.6-2.1,1.2
		c-0.6,0.5-1,1.2-1.4,1.9c-0.3,0.8-0.5,1.6-0.5,2.6c0,1.5,0.5,2.7,1.4,3.7c0.9,0.9,2.1,1.6,3.6,2.2c0.6,0.2,1.1,0.4,1.6,0.6
		c0.5,0.2,1,0.3,1.5,0.5c0.5,0.2,1,0.3,1.5,0.5s1,0.4,1.6,0.6c1.9,0.7,3.5,1.8,4.5,3.1c1.1,1.4,1.6,3.1,1.6,5.1
		C24,32.9,23.7,34.1,23.2,35.2z"/>
	<path class="st1" d="M43.9,35.6c-0.4,0.8-0.9,1.5-1.6,2.2c-0.7,0.7-1.5,1.2-2.5,1.6c-1,0.4-2,0.6-3.2,0.6c-1.5,0-2.8-0.3-4-0.8
		c-1.2-0.5-2.2-1.3-3.1-2.3c-0.8-1-1.5-2.2-2-3.5c-0.5-1.3-0.7-2.7-0.7-4.2c0-1.2,0.2-2.4,0.6-3.6c0.4-1.2,1-2.3,1.8-3.2
		c0.8-0.9,1.7-1.7,2.9-2.3c1.1-0.6,2.4-0.9,3.8-0.9c1.1,0,2.2,0.1,3.2,0.4c1,0.3,1.8,0.7,2.6,1.3c0.7,0.6,1.3,1.3,1.8,2.2
		c0.5,0.9,0.7,1.9,0.8,3.1H30.5c0,0.2,0,0.5,0,0.8c0,0.3,0,0.6,0,0.9c0,1.2,0.2,2.4,0.5,3.5c0.3,1.1,0.8,2.1,1.5,2.9
		c0.7,0.8,1.5,1.5,2.5,2c1,0.5,2.2,0.7,3.5,0.7c1.4,0,2.7-0.4,3.8-1.1c1.1-0.7,1.8-1.6,2.1-2.7l0.3,0.1
		C44.5,34.1,44.3,34.8,43.9,35.6z M38.9,21.1C38.2,20.3,37.2,20,36,20c-0.8,0-1.5,0.2-2.2,0.7c-0.6,0.5-1.2,1-1.7,1.7
		c-0.5,0.6-0.8,1.3-1.1,1.9c-0.3,0.6-0.4,1.1-0.5,1.5c0.7,0,1.2,0,1.8,0c0.5,0,1,0,1.5,0c0.5,0,1,0,1.6,0c0.5,0,1.1,0,1.8,0
		c0.4,0,0.8,0,1.2,0c0.4,0,0.7-0.1,1-0.2c0.2-0.2,0.4-0.4,0.5-0.6c0.1-0.2,0.2-0.5,0.2-0.9C40,22.8,39.7,21.9,38.9,21.1z"/>
	<path class="st1" d="M64.9,20.2c-0.4,0.1-0.8,0.2-1.3,0.3s-0.8,0.4-1.2,0.7s-0.7,0.7-0.9,1.2c-0.3,0.8-0.7,1.7-1.2,2.8
		c-0.4,1.1-0.9,2.2-1.4,3.4c-0.5,1.2-1,2.4-1.4,3.6s-0.9,2.3-1.3,3.3c-0.2,0.5-0.4,1-0.6,1.3c-0.2,0.4-0.3,0.7-0.5,1
		s-0.3,0.6-0.4,0.9c-0.1,0.3-0.3,0.6-0.5,1c-0.1,0.2-0.2,0.3-0.4,0.3c-0.1,0-0.2,0-0.3-0.1c-0.1-0.1-0.1-0.1-0.1-0.2
		c-0.5-1.2-0.9-2.3-1.3-3.3c-0.4-1-0.8-2.1-1.2-3.2c-0.4-1.1-0.9-2.3-1.4-3.5c-0.5-1.3-1-2.7-1.6-4.3c-0.1-0.2-0.2-0.5-0.4-0.9
		c-0.2-0.4-0.3-0.8-0.5-1.2c-0.2-0.4-0.3-0.8-0.5-1.2c-0.2-0.4-0.3-0.7-0.5-1c-0.2-0.2-0.4-0.4-0.8-0.6c-0.4-0.2-1-0.4-2-0.4v-0.5
		h10.4v0.5c-0.3,0-0.6,0.1-1,0.1c-0.4,0-0.8,0.1-1.1,0.2c-0.3,0.1-0.6,0.2-0.9,0.4c-0.2,0.2-0.4,0.4-0.4,0.7c0,0.1,0.1,0.5,0.3,1
		c0.2,0.5,0.4,1.2,0.7,2c0.3,0.8,0.6,1.7,1,2.7c0.4,1,0.8,2,1.1,2.9c0.4,1,0.8,1.9,1.1,2.8c0.4,0.9,0.7,1.7,0.9,2.4
		c0.4-1.1,0.9-2.3,1.5-3.8c0.6-1.5,1.1-2.9,1.6-4.3s1-2.6,1.3-3.7c0.4-1.1,0.5-1.7,0.5-2c0-0.4-0.1-0.7-0.3-0.9
		c-0.2-0.2-0.5-0.4-0.8-0.5c-0.3-0.1-0.6-0.1-1-0.1c-0.3,0-0.6,0-0.9,0v-0.4h8.3v0.5C65.6,20.1,65.3,20.2,64.9,20.2z"/>
	<path class="st1" d="M81.6,35.6c-0.4,0.8-0.9,1.5-1.6,2.2c-0.7,0.7-1.5,1.2-2.5,1.6c-1,0.4-2,0.6-3.2,0.6c-1.5,0-2.8-0.3-4-0.8
		c-1.2-0.5-2.2-1.3-3.1-2.3c-0.8-1-1.5-2.2-2-3.5c-0.5-1.3-0.7-2.7-0.7-4.2c0-1.2,0.2-2.4,0.6-3.6c0.4-1.2,1-2.3,1.8-3.2
		c0.8-0.9,1.7-1.7,2.9-2.3c1.1-0.6,2.4-0.9,3.8-0.9c1.1,0,2.2,0.1,3.2,0.4c1,0.3,1.8,0.7,2.6,1.3c0.7,0.6,1.3,1.3,1.8,2.2
		c0.5,0.9,0.7,1.9,0.8,3.1H68.2c0,0.2,0,0.5,0,0.8c0,0.3,0,0.6,0,0.9c0,1.2,0.2,2.4,0.5,3.5c0.3,1.1,0.8,2.1,1.5,2.9
		c0.7,0.8,1.5,1.5,2.5,2c1,0.5,2.2,0.7,3.5,0.7c1.4,0,2.7-0.4,3.8-1.1c1.1-0.7,1.8-1.6,2.1-2.7l0.3,0.1C82.3,34.1,82,34.8,81.6,35.6
		z M76.7,21.1C76,20.3,75,20,73.7,20c-0.8,0-1.5,0.2-2.2,0.7c-0.6,0.5-1.2,1-1.7,1.7c-0.5,0.6-0.8,1.3-1.1,1.9
		c-0.3,0.6-0.4,1.1-0.5,1.5c0.7,0,1.2,0,1.8,0c0.5,0,1,0,1.5,0c0.5,0,1,0,1.6,0c0.5,0,1.1,0,1.8,0c0.4,0,0.8,0,1.2,0
		c0.4,0,0.7-0.1,1-0.2c0.2-0.2,0.4-0.4,0.5-0.6c0.1-0.2,0.2-0.5,0.2-0.9C77.8,22.8,77.4,21.9,76.7,21.1z"/>
	<path class="st1" d="M95.7,40v-0.5c0.8-0.1,1.4-0.2,1.8-0.3c0.5-0.1,0.7-0.4,0.7-0.9V27.5c0-1.7-0.3-3-0.9-4
		c-0.6-1-1.7-1.5-3.2-1.5c-0.9,0-1.7,0.2-2.4,0.6c-0.6,0.4-1.3,1-2.1,1.8v14.1c0.1,0.3,0.2,0.5,0.3,0.6c0.1,0.1,0.3,0.2,0.5,0.3
		c0.2,0.1,0.4,0.1,0.7,0.1s0.5,0,0.8,0.1V40h-8.3v-0.4c0.7-0.1,1.2-0.2,1.7-0.4c0.5-0.2,0.7-0.5,0.7-1V23.4c0-0.2,0-0.4-0.1-0.5
		c0-0.1-0.2-0.2-0.4-0.4c-0.3-0.1-0.6-0.3-0.9-0.5c-0.3-0.2-0.7-0.4-1-0.5v-0.3l5.6-2h0.3v4.6l0.1,0c0.3-0.5,0.7-1,1.2-1.6
		c0.5-0.6,1-1.1,1.6-1.5c0.6-0.5,1.3-0.8,2-1.1s1.5-0.5,2.2-0.5c1.7,0,2.9,0.6,3.8,1.8c0.9,1.2,1.3,2.8,1.3,4.8v12.6
		c0,0.2,0.1,0.4,0.3,0.5c0.2,0.1,0.4,0.3,0.7,0.3c0.3,0.1,0.5,0.1,0.8,0.2c0.3,0,0.6,0.1,0.8,0.1V40H95.7z"/>
	<path class="st1" d="M121.4,40.1h-0.3v-4.3h0c-0.8,1.4-1.8,2.5-2.9,3.2c-1.1,0.7-2.5,1-4.2,1c-1.1,0-2.1-0.2-3.1-0.6
		c-1-0.4-1.9-1.1-2.6-1.9c-0.8-0.9-1.4-1.9-1.8-3.2c-0.5-1.3-0.7-2.7-0.7-4.4c0-1.5,0.3-2.9,0.8-4.2c0.5-1.3,1.3-2.4,2.2-3.4
		c1-1,2.1-1.7,3.5-2.3c1.3-0.5,2.8-0.8,4.5-0.8c0.9,0,1.7,0.1,2.4,0.2c0.8,0.1,1.5,0.3,2.1,0.5c0-0.4-0.1-1-0.1-1.8
		c0-0.7,0-1.5,0-2.3c0-0.8,0-1.5,0-2.2c0-0.7,0-1.2,0-1.5l-3.5-1.3v-0.3l6.8-1.9h0.3v27.9c0.2,0.1,0.7,0.3,1.3,0.6
		c0.6,0.3,1.2,0.5,1.8,0.7v0.3L121.4,40.1z M121.1,24c-0.6-1.2-1.4-2.1-2.4-2.8c-1-0.7-1.9-1.1-2.7-1.1c-1.1,0-2.1,0.3-2.9,0.8
		c-0.8,0.5-1.4,1.2-2,2.1c-0.5,0.9-0.9,1.8-1.1,3c-0.2,1.1-0.4,2.3-0.4,3.4c0,1.2,0.1,2.3,0.4,3.4c0.3,1.1,0.7,2.1,1.3,2.9
		c0.6,0.8,1.3,1.5,2.1,2c0.8,0.5,1.8,0.8,2.9,0.8c1.2,0,2.2-0.4,3-1.2c0.8-0.8,1.4-1.8,1.6-3.1V24z"/>
	<path class="st1" d="M148,37.4c-0.2,0.5-0.5,1-0.9,1.4c-0.4,0.4-0.8,0.7-1.3,0.9c-0.5,0.2-1.1,0.3-1.7,0.3c-1,0-1.8-0.3-2.6-0.9
		c-0.8-0.6-1.1-1.6-1.1-3l-0.1,0c-0.2,0.4-0.5,0.8-0.9,1.2c-0.4,0.5-0.8,0.9-1.4,1.3c-0.5,0.4-1.1,0.7-1.8,1s-1.4,0.4-2.1,0.4
		c-0.5,0-0.9-0.1-1.4-0.2c-0.5-0.1-0.9-0.4-1.3-0.7c-0.4-0.3-0.7-0.8-0.9-1.3c-0.2-0.5-0.4-1.1-0.4-1.9c0-0.8,0.3-1.6,1-2.3
		c0.6-0.7,1.4-1.4,2.4-2c0.9-0.6,1.8-1.1,2.5-1.5c0.7-0.4,1.4-0.8,1.9-1.1c0.5-0.3,1-0.6,1.4-0.8s0.8-0.4,1.1-0.6v-4.4
		c0-0.1-0.1-0.2-0.2-0.4c-0.1-0.2-0.3-0.4-0.5-0.7c-0.2-0.2-0.6-0.4-1-0.6c-0.4-0.2-1-0.3-1.7-0.3c-0.5,0-0.9,0.1-1.4,0.2
		c-0.4,0.2-0.8,0.4-1.2,0.6c-0.3,0.2-0.6,0.5-0.8,0.7c-0.2,0.2-0.3,0.5-0.3,0.6v1.9c0,0.4-0.2,0.8-0.6,1.1s-0.9,0.5-1.4,0.5
		c-0.5,0-0.9-0.2-1.2-0.5c-0.3-0.3-0.5-0.7-0.5-1.1c0-0.3,0.1-0.7,0.3-0.9c0.2-0.3,0.4-0.5,0.6-0.8c0.3-0.2,0.5-0.4,0.8-0.6
		c0.3-0.2,0.6-0.3,0.8-0.5c0.7-0.4,1.5-0.8,2.3-1.2s1.5-0.7,2.2-1c0.7-0.3,1.3-0.5,1.9-0.7c0.6-0.2,1.1-0.3,1.4-0.3
		c0.7,0,1.4,0.2,2.1,0.6c0.7,0.4,1.1,0.9,1.4,1.4c0.1,0.2,0.2,0.6,0.2,1.1c0,0.5,0,1,0,1.5c0,1,0,2,0,2.8c0,0.8,0,1.6,0,2.4
		c0,0.8,0,1.6,0,2.4c0,0.8,0,1.7,0,2.7c0,1.3,0.2,2.1,0.7,2.6c0.4,0.4,1,0.6,1.5,0.6c0.7,0,1.1-0.1,1.5-0.4s0.5-0.6,0.6-1.1h0.3
		C148.3,36.3,148.2,36.9,148,37.4z M140.4,28.3c-0.5,0.4-1.2,0.8-1.9,1.2c-0.8,0.4-1.5,0.9-2.3,1.4c-0.7,0.5-1.4,1-1.9,1.6
		c-0.5,0.6-0.8,1.3-0.8,2c0,0.7,0.3,1.4,0.8,2c0.5,0.6,1.2,0.9,2,0.9c0.7,0,1.4-0.1,2-0.3c0.6-0.2,1.1-0.5,1.6-1
		c0.3-0.3,0.5-0.7,0.5-1.2V28.3z"/>
	<path class="st1" d="M165.7,20.2c-0.3,0-0.6,0.1-0.9,0.2c-0.3,0.1-0.6,0.3-0.8,0.5c-0.2,0.2-0.4,0.6-0.6,1.1s-0.4,1.2-0.7,2.2
		c-0.3,1-0.7,2.2-1.1,3.5c-0.4,1.4-0.9,2.9-1.4,4.5c-0.5,1.6-1,3.3-1.6,5c-0.5,1.7-1.1,3.4-1.6,5.1c-0.5,1.7-1,3.3-1.5,4.8
		c-0.3,1.1-0.8,1.9-1.5,2.4c-0.6,0.5-1.3,0.7-1.9,0.7c-0.6,0-1.1-0.2-1.6-0.5c-0.5-0.4-0.7-0.8-0.7-1.4c0-0.6,0.2-1.1,0.5-1.4
		c0.3-0.4,0.8-0.6,1.4-0.6c0.6,0,1.1,0.2,1.4,0.5c0.4,0.3,0.8,0.7,1.2,1.1h0.1c0.3-0.8,0.6-1.5,0.8-2.3c0.2-0.8,0.5-1.4,0.6-2.1
		c0.2-0.6,0.3-1.1,0.5-1.6c0.1-0.4,0.2-0.7,0.2-0.9c-0.1-0.1-0.2-0.5-0.5-1.2c-0.3-0.7-0.6-1.6-1-2.7c-0.4-1.1-0.9-2.3-1.4-3.7
		c-0.5-1.4-1-2.8-1.6-4.2c-0.5-1.4-1.1-2.9-1.6-4.3c-0.5-1.4-1-2.7-1.4-3.9c-0.3-0.3-0.6-0.5-0.9-0.7c-0.4-0.2-1-0.3-2-0.3v-0.5h9.4
		v0.5c-0.6,0.1-1.1,0.2-1.6,0.3c-0.4,0.1-0.7,0.5-0.7,1c0,0.1,0.1,0.5,0.3,1.1s0.4,1.3,0.7,2.1c0.3,0.8,0.6,1.7,1,2.7
		c0.4,1,0.7,2,1.1,3c0.4,1,0.7,2,1.1,2.9c0.3,0.9,0.6,1.7,0.9,2.4c0.1-0.2,0.2-0.7,0.5-1.5c0.2-0.7,0.5-1.6,0.8-2.6
		c0.3-1,0.6-2.1,1-3.2c0.3-1.1,0.7-2.2,0.9-3.2c0.3-1,0.5-1.8,0.7-2.5c0.2-0.7,0.3-1.1,0.3-1.3c0-0.3-0.1-0.5-0.2-0.6
		c-0.1-0.2-0.3-0.3-0.6-0.4c-0.2-0.1-0.5-0.1-0.8-0.2c-0.3,0-0.6-0.1-0.8-0.1v-0.5h6.6v0.5C166.3,20.2,166,20.2,165.7,20.2z"/>
	<path class="st1" d="M180.7,36.6c-0.4,0.8-1,1.5-1.8,2s-1.6,0.9-2.6,1.1c-1,0.2-2,0.3-3,0.3c-1.3,0-2.5-0.1-3.6-0.3
		c-1.1-0.2-2.2-0.6-3.1-1v-5.7h0.3c0.2,0.7,0.5,1.4,0.9,2.2c0.3,0.8,0.8,1.5,1.2,2.1c0.5,0.6,1.1,1.2,1.8,1.6
		c0.7,0.4,1.5,0.6,2.4,0.6c1.4,0,2.5-0.4,3.3-1.2c0.8-0.8,1.2-2,1.2-3.6c0-0.9-0.3-1.6-0.8-2.2c-0.6-0.6-1.3-1-2.3-1.2
		c-0.8-0.1-1.5-0.3-2.2-0.5c-0.7-0.2-1.4-0.4-1.9-0.6c-1.1-0.4-2-1-2.6-1.9c-0.7-0.9-1-2-1-3.3c0-0.9,0.2-1.7,0.6-2.4
		c0.4-0.7,0.9-1.3,1.5-1.8c0.6-0.5,1.4-0.9,2.2-1.2s1.7-0.4,2.7-0.4c1.2,0,2.3,0.1,3.2,0.3c0.9,0.2,1.8,0.5,2.6,0.8l0.5,5.3
		l-0.3,0.1c-0.4-0.9-0.8-1.7-1.2-2.4c-0.4-0.7-0.8-1.4-1.3-1.9c-0.5-0.5-1-0.9-1.7-1.2c-0.6-0.3-1.3-0.4-2.1-0.4
		c-0.5,0-1,0.1-1.4,0.3s-0.9,0.4-1.2,0.8c-0.4,0.3-0.7,0.7-0.9,1.2s-0.3,1.1-0.3,1.7c0,1.1,0.3,1.8,0.9,2.3c0.6,0.5,1.4,0.8,2.3,1
		c0.6,0.1,1.3,0.3,2.1,0.5c0.7,0.2,1.4,0.3,1.9,0.5c1.3,0.3,2.4,1,3.3,2c0.9,1,1.4,2.2,1.4,3.7C181.4,34.8,181.1,35.8,180.7,36.6z"
		/>
	<path class="st1" d="M215.9,40c-0.1-0.1-0.2-0.1-0.4-0.2c-0.1-0.1-0.3-0.3-0.5-0.5c-1.8-2.1-3.6-4.1-5.2-6
		c-1.6-1.9-3.4-3.8-5.1-5.8c-0.7-0.8-1.3-1.3-1.5-1.5c-0.3-0.2-0.5-0.3-0.7-0.3c-0.2,0-0.4,0.1-0.5,0.2c-0.1,0.1-0.2,0.3-0.2,0.5
		c0,1.5,0,2.9,0,4.3c0,1.3,0,2.5,0,3.4c0,0.8,0.1,1.6,0.2,2.3c0.1,0.7,0.3,1.3,0.6,1.6c0.2,0.3,0.5,0.5,0.8,0.7
		c0.3,0.2,0.7,0.4,1.1,0.5s0.8,0.2,1.2,0.3s0.7,0.1,1,0.2V40h-13.8v-0.4c0.7-0.1,1.4-0.3,2.1-0.5c0.7-0.2,1.2-0.5,1.5-0.9
		c0.1-0.2,0.3-0.4,0.3-0.8s0.2-0.7,0.2-1.2c0-0.4,0.1-0.9,0.1-1.4c0-0.5,0-1,0-1.4c0-0.4,0-0.9,0-1.6c0-0.7,0-1.4,0-2.2
		c0-0.8,0-1.7,0-2.5c0-0.9,0-1.7,0-2.5V16c0-1.1,0-2.1-0.1-3c-0.1-0.9-0.3-1.6-0.6-2c-0.4-0.5-0.9-0.8-1.5-1.1
		c-0.6-0.2-1.2-0.4-2-0.5V9h13.3v0.4c-0.5,0.1-1.1,0.1-1.6,0.2c-0.5,0.1-1,0.3-1.4,0.6c-0.4,0.3-0.7,0.8-1,1.5
		c-0.3,0.7-0.4,1.6-0.5,2.8c0,0.7,0,1.3-0.1,1.8c0,0.6,0,1.2,0,2c0,0.7,0,1.6,0,2.7c0,1,0,2.4,0,4c0.5-0.3,1.2-0.9,2.1-1.6
		c0.9-0.8,1.8-1.6,2.8-2.6c1-0.9,1.9-1.9,2.9-2.9s1.8-1.9,2.5-2.6c0.5-0.6,0.9-1.2,1.3-1.8c0.4-0.6,0.6-1.1,0.6-1.6
		c0-0.8-0.3-1.4-0.9-1.8c-0.6-0.4-1.2-0.6-2-0.7V9h11.5v0.4c-1.5,0.1-2.9,0.8-4.4,1.8c-1.5,1.1-3,2.4-4.6,3.8
		c-0.6,0.5-1.2,1.1-1.8,1.8s-1.3,1.3-1.9,1.9c-0.6,0.6-1.2,1.2-1.8,1.8c-0.6,0.6-1.1,1.1-1.6,1.7c0.2,0.3,0.8,0.9,1.6,1.9
		c0.8,1,1.8,2.1,3,3.4s2.4,2.7,3.7,4.1s2.6,2.9,3.8,4.2c0.3,0.3,0.6,0.7,1,1c0.4,0.3,0.7,0.7,1.1,0.9c0.3,0.3,0.6,0.5,0.9,0.7
		c0.3,0.2,0.4,0.3,0.5,0.3c0.4,0.1,0.9,0.3,1.5,0.4c0.6,0.1,1.4,0.2,2.2,0.3V40H215.9z"/>
	<path class="st1" d="M256.1,30.7c-0.9,2-2,3.6-3.5,5.1c-1.5,1.4-3.2,2.5-5.2,3.3c-2,0.8-4,1.2-6.3,1.2c-2.2,0-4.2-0.4-6.2-1.1
		c-2-0.8-3.7-1.8-5.1-3.2s-2.6-3.1-3.5-5c-0.8-1.9-1.3-4.1-1.3-6.4c0-2.5,0.4-4.7,1.3-6.6c0.9-2,2.1-3.6,3.6-5s3.3-2.4,5.3-3.1
		c2-0.7,4.1-1.1,6.4-1.1c2.4,0,4.6,0.4,6.6,1.3c1.9,0.9,3.6,2,4.9,3.5c1.3,1.4,2.4,3.1,3.1,5c0.7,1.9,1.1,3.9,1.1,5.9
		C257.4,26.6,257,28.7,256.1,30.7z M251.4,19.1c-0.4-1.8-1.1-3.4-2-4.8c-0.9-1.4-2-2.6-3.4-3.5c-1.3-0.9-2.9-1.4-4.8-1.4
		c-1.9,0-3.5,0.5-4.8,1.4c-1.4,0.9-2.5,2.1-3.4,3.5s-1.5,3.1-1.9,4.9c-0.4,1.8-0.6,3.7-0.6,5.5c0,1.9,0.2,3.8,0.7,5.6
		c0.5,1.8,1.1,3.4,2,4.8c0.9,1.4,2,2.5,3.4,3.3c1.4,0.8,2.9,1.2,4.8,1.2c1.8,0,3.4-0.5,4.7-1.4s2.4-2.1,3.3-3.5
		c0.9-1.4,1.6-3.1,2-4.9c0.4-1.8,0.7-3.6,0.7-5.4C252.1,22.6,251.9,20.8,251.4,19.1z"/>
	<path class="st1" d="M287.6,34.3c-0.3,0.8-0.7,1.6-1.2,2.2c-0.5,0.6-1.1,1.2-1.7,1.6c-0.6,0.4-1.3,0.8-1.9,1
		c-1.1,0.4-2.3,0.6-3.7,0.7s-2.7,0.1-3.9,0.1h-14.8v-0.4c0.7-0.1,1.4-0.3,2-0.6s1.2-0.6,1.6-1.1c0.1-0.2,0.3-0.4,0.3-0.8
		c0.1-0.3,0.2-0.7,0.2-1.1c0.1-0.4,0.1-0.9,0.2-1.4c0-0.5,0-0.9,0-1.4c0-0.4,0-0.9,0-1.6c0-0.7,0-1.4,0-2.3c0-0.8,0-1.7,0-2.5
		c0-0.9,0-1.7,0-2.5c0-0.9,0-1.6,0-2.3s0-1.3,0-1.9c0-0.6,0-1.3,0-1.9c0-0.7,0-1.4,0-2.3c0-0.5,0-1,0-1.6c0-0.5-0.1-1-0.2-1.5
		c-0.1-0.5-0.2-0.9-0.3-1.3c-0.1-0.4-0.2-0.7-0.4-0.8c-0.4-0.5-0.9-0.8-1.3-0.9c-0.4-0.2-1-0.3-1.8-0.4V9h14.5
		c1.1,0,2.1,0.1,3.1,0.2c1,0.1,1.9,0.4,2.9,0.7c1.5,0.5,2.7,1.4,3.6,2.5c0.9,1.1,1.4,2.5,1.4,4.3c0,1.9-0.6,3.4-1.8,4.6
		s-2.8,1.9-4.8,2.3v0.2c1,0.1,2,0.4,3.1,0.8c1,0.4,1.9,0.9,2.7,1.6c0.8,0.7,1.4,1.4,1.9,2.3c0.5,0.9,0.7,1.9,0.7,3.1
		C288.1,32.6,287.9,33.5,287.6,34.3z M280.3,12.9c-0.7-1.1-1.6-1.9-2.7-2.4c-1.3-0.6-2.9-0.9-4.9-0.9c-0.6,0-1.1,0-1.6,0.1
		c-0.5,0.1-0.9,0.1-1.1,0.2c0,0.2-0.1,0.3-0.1,0.5c0,0.1-0.1,0.3-0.1,0.5c0,0.2,0,0.5,0,0.8c0,0.3,0,0.7-0.1,1.2
		c0,1-0.1,2.1-0.1,3.3c0,1.2,0,2.4,0,3.4c0,1.1,0,2,0,2.8s0,1.2,0,1.4c0.9,0,1.7,0,2.4,0c0.7,0,1.2,0,1.6,0c2.6-0.1,4.5-0.9,5.9-2.2
		c1.3-1.3,2-3,2-4.9C281.4,15.3,281,14,280.3,12.9z M282.7,29.7c-0.3-0.7-0.6-1.4-1.1-2c-0.5-0.6-1-1.1-1.7-1.6
		c-0.6-0.4-1.4-0.8-2.1-1.1c-0.6-0.2-1.3-0.3-1.9-0.4c-0.6-0.1-1.3-0.1-2.2-0.1h-4.2c0,0.9,0,1.8,0,2.8c0,0.9,0,1.8,0,2.6
		c0,0.8,0,1.5,0,2.2c0,0.7,0,1.3,0,1.7c0,1.1,0.1,2,0.2,2.7c0.1,0.7,0.3,1.3,0.6,1.7c0.3,0.3,0.6,0.6,1.2,0.8s1.3,0.3,2.2,0.3
		c0.8,0,1.7-0.1,2.7-0.2c1-0.1,1.9-0.4,2.8-0.9c1.2-0.6,2.1-1.5,2.8-2.5c0.7-1,1-2.3,1-3.8C283.1,31.2,282.9,30.4,282.7,29.7z"/>
	<path class="st1" d="M318.8,40h-26.3v-0.4c0.7-0.1,1.4-0.3,2-0.6c0.6-0.3,1.1-0.6,1.5-1.1c0.1-0.2,0.3-0.4,0.3-0.8
		c0.1-0.3,0.2-0.7,0.2-1.1c0.1-0.4,0.1-0.9,0.2-1.4c0-0.5,0-0.9,0-1.4c0-0.4,0-0.9,0-1.6c0-0.7,0-1.4,0-2.3c0-0.8,0-1.7,0-2.5
		c0-0.9,0-1.7,0-2.5V16c0-0.5,0-1,0-1.6c0-0.5,0-1.1-0.1-1.5s-0.1-0.9-0.2-1.3c-0.1-0.4-0.2-0.7-0.4-0.8c-0.4-0.5-0.9-0.8-1.4-0.9
		c-0.5-0.1-1.1-0.3-1.9-0.4V9h23.7l2.9,7.1l-0.4,0.2c-2.3-2.9-4.5-4.8-6.5-5.8c-0.5-0.2-1.4-0.4-2.7-0.6c-1.3-0.2-2.9-0.3-4.8-0.3
		c-0.6,0-1.2,0-1.9,0.1s-1.1,0.1-1.4,0.2c-0.1,0.5-0.1,1.4-0.2,2.8s-0.1,3.1-0.1,5c0,1.1,0,2,0,2.8c0,0.7,0,1.4,0,1.8
		c0,0.5,0,0.8,0,1.1c0,0.2,0,0.4,0,0.5c0.1,0,0.4,0,0.9,0s0.9,0,1.5,0c0.6,0,1.1-0.1,1.7-0.1s1-0.1,1.4-0.2c0.9-0.2,1.6-0.5,2.1-0.8
		c0.6-0.3,1-0.8,1.4-1.2c0.4-0.5,0.6-1.1,0.9-1.7c0.2-0.6,0.4-1.4,0.6-2.2h0.5v13.5H312c-0.2-0.9-0.6-1.9-1.1-2.8
		c-0.5-1-1-1.7-1.5-2.2c-0.5-0.4-1-0.7-1.7-1c-0.6-0.3-1.4-0.4-2.3-0.5c-0.4,0-0.8,0-1.1-0.1c-0.3,0-0.6,0-0.9,0c-0.3,0-0.5,0-0.9,0
		c-0.3,0-0.7,0-1.1,0c-0.1,0.4-0.1,1-0.1,1.8c0,0.8,0,1.6,0,2.4c0,0.4,0,0.8,0,1.3s0,1,0,1.5c0,0.5,0,0.9,0,1.3c0,0.4,0,0.8,0,1.1
		c0,0.9,0.1,1.8,0.2,2.6c0.1,0.8,0.2,1.4,0.5,1.8s0.9,0.7,1.8,0.9c1,0.2,2,0.3,3.2,0.3c0.5,0,1.1,0,1.9,0c0.8,0,1.6-0.1,2.4-0.2
		c0.9-0.1,1.8-0.3,2.5-0.7c0.8-0.3,1.5-0.8,2.2-1.4c0.7-0.6,1.4-1.3,2.1-2.2c0.7-0.9,1.4-1.9,2.1-3.2l0.5,0.1L318.8,40z"/>
</g>
</svg>
