<?xml version="1.0" encoding="utf-8"?>
<!-- Generator: Adobe Illustrator 26.0.1, SVG Export Plug-In . SVG Version: 6.00 Build 0)  -->
<svg version="1.1" id="レイヤー_1" xmlns="http://www.w3.org/2000/svg" xmlns:xlink="http://www.w3.org/1999/xlink" x="0px"
	 y="0px" viewBox="0 0 201 66" style="enable-background:new 0 0 201 66;" xml:space="preserve">
<style type="text/css">
	.st0{enable-background:new    ;}
	.st1{fill:#2C2C2C;}
</style>
<g class="st0">
	<path class="st1" d="M18.9,39.6c-1.3,0.4-2.4,1.3-3.7,1.7c-2.2,0.7-4.5,1-6.7,1c-0.9,0-4.8,0-4.8-1.5c0-0.9,1.1-1.9,1.8-2.4
		c2-1.3,4.2-1.3,6.5-1.3c1.1,0,2.2,0.1,3.3,0.1c1.4,0,2.4,0,2.4-1.8c0-1.1-0.8-1.9-1.6-2.6c-0.6-0.5-1-0.8-1.7-1.2
		c-2.3-1.1-4.8-1.5-7.2-2c-3.2-0.7-6.6-2.3-6.6-6.1c0-1,0.3-2.2,0.8-3.1c2-3.7,10.1-5.7,13.9-6.1c2-0.2,4-0.4,6-0.4
		c1,0,4.9,0,4.9,1.6c0,0.4,0,0.9-0.5,0.9c-0.8,0-1.8-0.6-2.9-0.6c-2.7,0-5.6,0.4-8.3,0.9c-3.3,0.6-7.4,1.7-9.9,4
		c-0.7,0.7-1.3,1.6-1.3,2.6c0,2.4,3.3,3.9,5.2,4.4c3.9,1,7.2,0.9,10.2,4.1c1,1.1,1.8,2.6,1.8,4.1c0,0.2,0,0.4,0,0.6
		c0,0.2,0,0.3,0.2,0.3c1,0,3.7-1.1,4.8-1.5c0.4-0.2,2.5-1.3,2.9-1.3c0.2,0,0.3,0.3,0.3,0.5C28.5,37.4,21.2,39,18.9,39.6z M12.8,39.5
		c-0.6,0-4.2,0.2-4.4,0.5c0.1,0,0.2,0,0.3,0h0.2c1.4,0,2.8-0.2,4.1-0.5C13,39.6,13.1,39.5,12.8,39.5z"/>
	<path class="st1" d="M42.7,36.6c-2.3,1.8-7.5,4.1-10.4,4.1s-5-1.5-5-4.5c0-1.2,0.2-2.3,0.5-3.4c0.5-1.7,0.8-3.2,2-4.6
		c1.1-1.2,2-1.9,3.5-2.4c0.6-0.1,1.2-0.2,1.8-0.5c0.2,0,0.3-0.1,0.6-0.1c1.2,0,1.5,1.6,1.5,2.5c0,0.5,0,1-0.2,1.5
		c-0.7,2.9-1.2,3.5-3.7,5.2c-0.4,0.3-2.4,1.3-2.4,2c0,1.2,1.2,1.6,2.3,1.6c1,0,2-0.2,3-0.6c1.4-0.4,2.8-1,4.2-1.6
		c0.8-0.3,1.6-0.8,2.4-1.2c0.2,0,0.4-0.1,0.6-0.1c0.3,0,0.4,0.1,0.4,0.4C43.8,35.7,43.2,36.3,42.7,36.6z M34.6,28.3
		c-0.4,0-1,0.3-1.3,0.6c-1.4,0.9-2.6,2.4-2.6,4.3c0,0.1,0,0.3,0.2,0.3c0.8,0,3.1-2.2,3.5-2.9c0.3-0.5,0.6-1.2,0.6-1.7
		C35,28.6,34.8,28.3,34.6,28.3z"/>
	<path class="st1" d="M58.2,32.5c-0.1,0-0.2,0.1-0.3,0.3c-0.8,3.3-1.3,3.9-2.3,4.9c-1.5,1.7-5.3,3.8-7.6,3.8c-2.2,0-3.9-1.5-3.9-3.7
		s2.3-7.2,3.7-8.9c0.3-0.4,0.8-0.6,1.3-0.6c0.8,0,1.4,0.5,1.4,1.4v0.2c0,1.2-1.4,2.2-2,3.2c-0.5,0.7-0.8,1.5-1.1,2.3
		c-0.2,0.6-0.4,1.3-0.4,1.9c0,0.9,0.4,1.2,1.3,1.2c2.9,0,6.8-2.4,6.8-5.6c0-0.7-0.1-1.3-0.1-2.1v-0.4c0-1.3,0.6-3.1,2.3-3.1
		c0.8,0,1,0.6,1,1.2c0.1,0.8,0.6,1.7,1.4,2.2c1.4,0.8,3.4,0.7,4.2,0.8c0.5,0,0.7,0,0.8-0.3c0.9-1.9,2.2-3.8,3.8-4.8
		c1.9-1.2,3.7-1.6,5.1-1.6c0.4,0,0.9,0,1.2,0.1c0.8,0.2,1,1,1,1.8c0,0.9-0.2,1.8-0.7,2.5c-1.2,2.1-2.4,2.5-4.8,3.8
		c-0.9,0.5-2.8,0.9-3,1.4c-0.2,0.4-0.2,0.6-0.2,1c0,1.4,1,2.8,3.1,2.8c1.6,0,2.3-0.4,3.2-0.7c1.4-0.4,2.5-1,3.9-1.6
		c0.8-0.3,1.6-0.8,2.4-1.2c0.2,0,0.4-0.1,0.6-0.1c0.3,0,0.4,0.1,0.4,0.4c0,0.6-0.7,1.2-1.1,1.6c-2.3,1.8-6.9,4.3-10.4,4.3
		c-3.6,0-5.4-2.4-5.4-5.5c0-0.3,0-0.4,0-0.8c0-0.1-0.1-0.4-0.5-0.5c-2-0.5-2.7-0.5-4-1.1C58.3,32.5,58.7,32.5,58.2,32.5z M73.5,28
		c0-0.2-0.1-0.4-0.3-0.5c-0.1,0-0.1,0-0.2,0c-0.4,0-1,0.1-1.3,0.2c-1.6,0.5-3.1,1.4-3.5,3.3c0,0,0,0.1,0,0.1s0,0.1,0.1,0.1h0.2
		c1,0,3.1-1.1,3.9-1.6c0.6-0.4,1-1,1.2-1.4V28z"/>
	<path class="st1" d="M104.4,38.2c-2.5,1.4-5.1,2.4-8,2.6c-0.2,0-0.4,0-0.6,0c-3.6,0-2.5-3.6-3.1-4.6c0-0.1-0.1-0.1-0.2-0.1
		c-1,0-3.3,2.4-3.9,3.2c-0.6,0.8-1.9,2.2-3,2.2c-1,0-1-1.2-1-1.9c0-1,0.1-2,0.1-2.9c0-0.2,0-1.3-0.4-1.3c-0.3,0-3.5,2.6-5.8,2.6
		c-0.3,0-1.2-0.1-1.2-0.5c0-0.2,0.2-0.4,0.3-0.6c0.2-0.2,1.5-0.8,1.9-1c1-0.6,2-1.2,2.9-2c0.8-0.7,1.5-1.4,2.2-2.2
		c0.7-0.7,3.3-4.2,4.2-4.2c0.7,0,1.3,0.2,1.3,1c0,1.9-2.4,5.9-2.4,7.2c0,0,0,0.3,0.1,0.3c0.6,0,6.1-5.2,7.9-5.2c1.1,0,1.4,1.2,1.4,2
		c0,1.4-1.1,2.6-1.1,4c0,0.8,0.5,1.1,1.2,1.1c0.2,0,0.4,0,0.7-0.1c3.1-0.5,3.9-0.7,6.7-1.9c0.9-0.4,2.5-1.3,3.2-1.3
		c0.1,0.1,0.1,0.3,0.1,0.5C108,36.4,105.2,37.7,104.4,38.2z"/>
	<path class="st1" d="M130.8,36.8c-1.8,1.4-6.2,3.4-8.5,3.6c-0.2,0-0.4,0-0.7,0c-1.3,0-2.9-0.6-3.1-2.1c0-0.2,0-1.2-0.2-1.2
		c-0.1,0-0.3,0.3-0.3,0.3c-1.4,2-5.7,4.6-8.1,4.6c-1.6,0-3.1-0.8-3.1-2.5c0-1.1,0.4-2.1,0.9-3c0.3-0.7,0.6-1.4,1-2.1
		c1.1-1.9,2.6-3.6,4.2-5.1c1.1-1.2,4-3.2,5.7-3.2c0.8,0,1.5,0.9,2.2,0.9c0.3,0,0.3-0.1,0.5-0.3c0.9-1.7,1.7-3.4,2.3-5.1
		c0.7-1.9,0.9-3.3,2.4-4.5c0.4-0.2,1.2-0.9,1.6-0.9c0.6,0,0.7,1,0.7,1.6v1.2c-0.1,1.3-0.4,1-0.9,2c-0.4,0.8-0.6,1.6-0.8,2.4
		c-0.5,2.1-2.1,4.1-2.7,6.2c-0.6,1.8-2.5,5.9-2.5,7.3c0,0.8,0.7,1,1.3,1c2.9,0,8.1-3.2,9.1-3.2c0.2,0,0.4,0.1,0.4,0.3
		C132,35.8,131.1,36.5,130.8,36.8z M119.4,28.3c-1.5,0-3.7,1.2-4.7,2.3c-1.5,1.5-2.8,3-3.8,4.9c-0.4,0.9-1.2,2.4-1.2,3.4
		c0,0.6,0.2,0.9,0.8,0.9c1.9,0,4.9-3.3,6.1-4.5c0.3-0.3,2-1.9,2.2-2.3l0.4-1.1c0.3-0.9,1-2.2,1-3.1
		C120.2,28.5,119.8,28.3,119.4,28.3z"/>
	<path class="st1" d="M130.7,38.5c0-1.2,0.4-2.3,0.9-3.3c2-4.1,6.4-8.5,11.3-8.5c2.3,0,2.2,1.5,3.1,3c0.3,0.5,0.8,1.1,0.8,1.8
		c0,1.2-2.7,2.9-2.7,5c0,0.9,0.6,1.2,1.4,1.2c3.1,0,7.6-3,8.6-3c0.2,0,0.2,0.3,0.2,0.5c0,1.7-6.2,4.3-7.7,4.7
		c-0.7,0.1-1.4,0.2-2.1,0.2c-1.1,0-2.1-0.2-2.8-1.1c-0.2-0.2-0.6-1.2-0.9-1.2c-0.5,0-4.4,3.4-7.3,3.4
		C131.9,41.2,130.7,40.2,130.7,38.5z M142.2,29.6H142c-1.7,0-3,0.8-4.3,1.8c-1.9,1.4-3.2,2.8-4,5.1c-0.1,0.3-0.1,0.6-0.1,0.9
		c0,0.6,0.3,0.9,0.9,0.9c1.2,0,3.1-0.9,4.1-1.5c1.6-0.9,2.2-1.3,3-3c0.5-1.1,2.3-2.2,2.3-3.5C143.9,29.7,142.8,29.6,142.2,29.6z"/>
	<path class="st1" d="M176.9,37.4c-2.4,1.3-4.9,2.4-6.9,4.4c-0.5,0.5-1.1,1.1-1.5,1.7c-0.9,1.2-1.5,4.8-1.8,6.3l-0.9,4.2
		c-0.5,2.4-0.8,4.5-3.5,5.3c-0.3,0.1-0.6,0.1-0.9,0.1c-2.3,0-2.1-4.3-2.2-5.9v-0.4c0-2.4,2.2-6,3.6-7.9c1.8-2.3,2.7-3,2.8-4.1
		c0.1-0.6,0.2-1.2,0.2-1.8c0-0.2,0-0.5-0.4-0.5c-0.6,0.1-1.1,0.4-1.6,0.6c-1.6,0.6-3.6,1.2-5.4,1.2c-2,0-3.4-1.1-3.4-3.2
		c0-1.4,0.5-2.9,1-4.1c0.6-1.3,2.3-5.5,4.1-5.5c0.7,0,1.4,0.5,1.4,1.2c0,1-3.3,4.7-3.3,7.6c0,1.1,0.8,1.2,1.7,1.2
		c1.1,0,2.3-0.3,3.4-0.7c2.4-0.8,3.6-1.2,4.4-3.8c0.7-2.2,1.8-3.9,2.9-5.9c0.2-0.5,0.5-0.7,1.1-0.7c0.9,0,1.5,0.7,1.5,1.6
		c0,3-4.3,8.8-4.3,10.3c0,0.1,0.1,0.2,0.2,0.2c0.3,0,4-2,4.7-2.3c1-0.4,3.8-1.7,4.9-1.7c0.1,0,0.2,0.1,0.2,0.2
		C178.9,36,177.5,37.1,176.9,37.4z M163.9,48c-0.9,0-2.2,5.1-2.2,6.1c0,0.3,0,1.6,0.4,1.6c0.8,0,2-6.4,2-7.4
		C164.1,48.3,164.1,48,163.9,48z"/>
	<path class="st1" d="M197,37.6c-3.7,2.3-8,2.7-12.2,3h-1.2c-1.3,0-4.7-0.2-5.3-1.7c0-0.2-0.2-1.1-0.4-1.1c-0.3,0-1,0.3-1.6,0.3
		c-0.3,0-1.2,0-1.2-0.5c0-0.2,0.2-0.4,0.3-0.6c0.3-0.2,1.5-0.8,1.8-1c1.1-0.6,2.1-1.2,3-1.9c2-1.5,4.2-2.8,6.1-4.3
		c0.9-0.6,3-2.6,4-2.6c0.8,0,1.2,0.4,1.2,1.2c0,0.8-0.2,1.6-0.5,2.4c-0.3,1.2-0.7,2.4-1.2,3.6l-0.8,1.7c-0.1,0.3-0.3,0.7-0.3,1
		c0,0.4,0.5,0.5,0.8,0.5c1.2,0,3.1-0.5,4.3-0.9c1-0.3,4.6-2.2,5-2.2c0.3,0,0.4,0.2,0.4,0.4C199.5,36,197.7,37.2,197,37.6z M187.6,32
		c-0.5,0-2.1,1.3-2.6,1.6c-0.6,0.4-3.6,2.2-3.7,2.8c0,0.1,0,0.2,0,0.3c0,0.9,1.3,1,2,1l0.8,0c2,0,1.9-0.7,2.7-2.2
		c0.4-0.9,1-2.2,1-3.2C187.8,32.2,187.8,32,187.6,32z"/>
</g>
</svg>
